<svg width="28" height="28" viewBox="0 0 28 28" fill="none" xmlns="http://www.w3.org/2000/svg">
<path fill-rule="evenodd" clip-rule="evenodd" d="M13.9998 26.8333C6.91218 26.8333 1.1665 21.0876 1.1665 14C1.1665 6.9123 6.91218 1.16663 13.9998 1.16663C21.0875 1.16663 26.8332 6.9123 26.8332 14C26.8332 21.0876 21.0875 26.8333 13.9998 26.8333ZM13.9998 24.5C19.7988 24.5 24.4998 19.799 24.4998 14C24.4998 8.20097 19.7988 3.49996 13.9998 3.49996C8.20085 3.49996 3.49984 8.20097 3.49984 14C3.49984 19.799 8.20085 24.5 13.9998 24.5ZM10.1581 19.4916L13.9998 15.6499L17.8415 19.4916L19.4915 17.8417L15.6498 14L19.4915 10.1582L17.8415 8.50833L13.9998 12.35L10.1581 8.50833L8.50821 10.1582L12.3499 14L8.50821 17.8417L10.1581 19.4916Z" fill="#FF0532"/>
</svg>
