<svg width="26" height="26" viewBox="0 0 26 26" fill="none" xmlns="http://www.w3.org/2000/svg">
<path fill-rule="evenodd" clip-rule="evenodd" d="M12.9998 25.8334C5.91218 25.8334 0.166504 20.0877 0.166504 13C0.166504 5.91237 5.91218 0.166687 12.9998 0.166687C20.0875 0.166687 25.8332 5.91237 25.8332 13C25.8332 20.0877 20.0875 25.8334 12.9998 25.8334ZM12.9998 23.5C18.7988 23.5 23.4998 18.799 23.4998 13C23.4998 7.20103 18.7988 2.50002 12.9998 2.50002C7.20085 2.50002 2.49984 7.20103 2.49984 13C2.49984 18.799 7.20085 23.5 12.9998 23.5ZM16.8415 8.67506L10.6665 14.8501L7.99146 12.1751L6.34155 13.825L10.6665 18.1499L18.4915 10.325L16.8415 8.67506Z" fill="#34A853"/>
</svg>
