<svg width="52" height="64" viewBox="0 0 52 64" fill="none" xmlns="http://www.w3.org/2000/svg">
<path d="M0 2C0 0.895431 0.895431 0 2 0H50C51.1046 0 52 0.895431 52 2V52C52 58.6274 46.6274 64 40 64H12C5.37258 64 0 58.6274 0 52V2Z" fill="#C1D3DE"/>
<path fill-rule="evenodd" clip-rule="evenodd" d="M24 23H28C29.1046 23 30 23.8954 30 25V26H34C35.1046 26 36 26.8954 36 28V39C36 40.1046 35.1046 41 34 41H18C16.8954 41 16 40.1046 16 39V28C16 26.8954 16.8954 26 18 26H22V25C22 23.8954 22.8954 23 24 23ZM18 28H22H30H34V33H27H25H18V28ZM18 39V35H25V36H27V35H34V39H18ZM28 25V26H24V25H28Z" fill="#393A56"/>
</svg>
