<svg width="52" height="64" viewBox="0 0 52 64" fill="none" xmlns="http://www.w3.org/2000/svg">
<path d="M0 2C0 0.895431 0.895431 0 2 0H50C51.1046 0 52 0.895431 52 2V52C52 58.6274 46.6274 64 40 64H12C5.37258 64 0 58.6274 0 52V2Z" fill="#C1D3DE"/>
<path fill-rule="evenodd" clip-rule="evenodd" d="M18 23H22C23.1046 23 24 23.8954 24 25V26H28C29.1046 26 30 26.8954 30 28V39C30 40.1046 29.1046 41 28 41H12C10.8954 41 10 40.1046 10 39V28C10 26.8954 10.8954 26 12 26H16V25C16 23.8954 16.8954 23 18 23ZM12 28H16H24H28V33H21H19H12V28ZM12 39V35H19V36H21V35H28V39H12ZM22 25V26H18V25H22Z" fill="#393A56"/>
<path fill-rule="evenodd" clip-rule="evenodd" d="M36 21H32C30.8954 21 30 21.8954 30 23V24H26C24.8954 24 24 24.8954 24 26H26H28H30H38H42V31H35H33H30V33H33V34H35V33H42V37H30V39H42C43.1046 39 44 38.1046 44 37V26C44 24.8954 43.1046 24 42 24H38V23C38 21.8954 37.1046 21 36 21ZM36 24V23H32V24H36Z" fill="#393A56"/>
</svg>
