<svg width="60" height="60" viewBox="0 0 60 60" fill="none" xmlns="http://www.w3.org/2000/svg">
<g clip-path="url(#clip0_265_1126)">
<path d="M29.9395 47.5L29.9394 49L29.9393 47.5H29.9388H29.9367L29.928 47.5L29.8928 47.5L29.7534 47.4997C29.6306 47.4994 29.4495 47.4988 29.2173 47.4976C28.7527 47.4952 28.0835 47.4905 27.2671 47.4809C25.6335 47.4619 23.4133 47.4237 21.0635 47.3475C18.7111 47.2712 16.2419 47.1571 14.1063 46.9873C11.9516 46.816 10.2675 46.5965 9.36835 46.3419C8.47126 46.0336 7.61198 45.5354 6.96773 44.8813C6.29425 44.1976 5.82511 43.4386 5.535 42.4746C3.81307 35.4377 4.36735 24.1188 5.55303 16.4665C5.84438 15.5304 6.30803 14.7884 6.96773 14.1187C7.73094 13.3439 8.43986 12.8544 9.2177 12.6964L9.278 12.6842L9.3371 12.667C10.2275 12.4088 11.9327 12.1861 14.1246 12.0127C16.2716 11.8429 18.756 11.7288 21.1236 11.6525C23.4886 11.5763 25.7239 11.5381 27.3689 11.5191C28.191 11.5095 28.8649 11.5048 29.3328 11.5024C29.5668 11.5012 29.7492 11.5006 29.8728 11.5003L30.0133 11.5L30.0488 11.5L30.0575 11.5L30.0596 11.5H30.0601L30.0602 10L30.0603 11.5H30.0607L30.0628 11.5L30.0715 11.5L30.1067 11.5L30.2462 11.5003C30.3689 11.5006 30.55 11.5012 30.7823 11.5024C31.2468 11.5048 31.916 11.5095 32.7325 11.5191C34.366 11.5381 36.5862 11.5763 38.936 11.6525C41.2884 11.7288 43.7577 11.8429 45.8932 12.0127C48.0732 12.186 49.7714 12.4086 50.6624 12.667L50.706 12.6797L50.7502 12.6896C51.4163 12.8399 52.1338 13.3296 52.911 14.1187C53.5845 14.8024 54.0536 15.5615 54.3437 16.5254C56.0671 23.5664 55.6281 34.8827 54.3328 42.5004C54.0252 43.3936 53.54 44.2428 52.911 44.8813C52.2655 45.5367 51.404 46.0356 50.505 46.3438C49.6436 46.5956 47.9794 46.8154 45.8231 46.9874C43.6935 47.1571 41.2207 47.2712 38.8607 47.3475C36.5033 47.4237 34.2718 47.4619 32.6287 47.4809C31.8075 47.4905 31.1341 47.4952 30.6665 47.4976C30.4327 47.4988 30.2503 47.4994 30.1267 47.4997L29.9863 47.5L29.9508 47.5L29.942 47.5H29.9399H29.9395Z" stroke="#8B9BAB" stroke-width="3"/>
<path d="M24.624 37.8394L38.6374 29.4998L24.624 21.1602V37.8394Z" fill="#376FFF"/>
</g>
<path d="M6 54L2 58" stroke="#8B9BAB" stroke-width="3" stroke-linecap="round" stroke-linejoin="round"/>
<path d="M58 54L54 58" stroke="#8B9BAB" stroke-width="3" stroke-linecap="round" stroke-linejoin="round"/>
<path d="M14 54L10 58" stroke="#8B9BAB" stroke-width="3" stroke-linecap="round" stroke-linejoin="round"/>
<path d="M23 54L19 58" stroke="#8B9BAB" stroke-width="3" stroke-linecap="round" stroke-linejoin="round"/>
<path d="M31 54L27 58" stroke="#8B9BAB" stroke-width="3" stroke-linecap="round" stroke-linejoin="round"/>
<path d="M40 54L36 58" stroke="#8B9BAB" stroke-width="3" stroke-linecap="round" stroke-linejoin="round"/>
<path d="M49 54L45 58" stroke="#8B9BAB" stroke-width="3" stroke-linecap="round" stroke-linejoin="round"/>
<path d="M6 2L2 6" stroke="#8B9BAB" stroke-width="3" stroke-linecap="round" stroke-linejoin="round"/>
<path d="M58 2L54 6" stroke="#8B9BAB" stroke-width="3" stroke-linecap="round" stroke-linejoin="round"/>
<path d="M14 2L10 6" stroke="#8B9BAB" stroke-width="3" stroke-linecap="round" stroke-linejoin="round"/>
<path d="M23 2L19 6" stroke="#8B9BAB" stroke-width="3" stroke-linecap="round" stroke-linejoin="round"/>
<path d="M31 2L27 6" stroke="#8B9BAB" stroke-width="3" stroke-linecap="round" stroke-linejoin="round"/>
<path d="M40 2L36 6" stroke="#8B9BAB" stroke-width="3" stroke-linecap="round" stroke-linejoin="round"/>
<path d="M49 2L45 6" stroke="#8B9BAB" stroke-width="3" stroke-linecap="round" stroke-linejoin="round"/>
<defs>
<clipPath id="clip0_265_1126">
<rect width="54" height="39" fill="white" transform="translate(3 10)"/>
</clipPath>
</defs>
</svg>
